<svg xmlns="http://www.w3.org/2000/svg" version="1.1" xmlns:xlink="http://www.w3.org/1999/xlink" xmlns:svgjs="http://svgjs.dev/svgjs" width="2000" height="1431" viewBox="0 0 2000 1431"><g transform="matrix(1,0,0,1,1.3810952936635204,0.5793522267206299)"><svg viewBox="0 0 345 247" data-background-color="#ffffff" preserveAspectRatio="xMidYMid meet" height="1431" width="2000" xmlns="http://www.w3.org/2000/svg" xmlns:xlink="http://www.w3.org/1999/xlink"><g id="tight-bounds" transform="matrix(1,0,0,1,-0.23801425057152414,-0.09999999999999432)"><svg viewBox="0 0 345.47618331085965 247.2" height="247.2" width="345.47618331085965"><g><svg viewBox="0 0 395.52 283.00805879872826" height="247.2" width="345.47618331085965"><g transform="matrix(1,0,0,1,0,145.53013930540277)"><svg viewBox="0 0 395.52 137.4779194933255" height="137.4779194933255" width="395.52"><g id="textblocktransform"><svg viewBox="0 0 395.52 137.4779194933255" height="137.4779194933255" width="395.52" id="textblock"><g><svg viewBox="0 0 395.52 99.86484594713338" height="99.86484594713338" width="395.52"><path d="M394.594 21.419C392.735 11.053 387.435 8.171 387.435 8.171 371.165-2.505 350.86-0.204 332.619 1.33 300.414 1.392 268.339 3.673 236.208 4.896 168.767 5.082 100.749 2.014 33.643 9.581 27.339 11.903-6.54 10.037 1.121 22.746 3.129 28.033 10.456 33.9 10.232 38.751 11.236 39.601 12.631 37.652 13.226 38.875 15.309 42.172 18.711 40.617 21.501 42.566 17.614 47.769 20.403 52.102 23.062 56.643 18.377 57.824 12.371 57.265 9.675 61.183 9.396 64.023 7.89 63.484 6.235 63.36 5.026 63.277 2.59 63.588 2.999 64.479 4.394 67.527-1.594 69.289 2.162 72.274-0.422 75.509 3.948 78.307 3.353 81.811 3.278 82.516 3.687 83.117 4.338 83.283 7.22 84.174 3.018 85.916 3.464 87.803 33.029 100.698 65.104 91.783 95.394 97.712 103.259 93.566 97.346 99.184 100.489 98.314 102.943 97.298 104.728 101.506 107.499 99.122 107.927 98.438 107.276 96.821 108.8 97.132 109.6 97.298 110.307 97.256 110.418 96.303 110.586 94.872 109.117 95.764 108.726 95.017 112.947 91.244 111.906 100.221 115.866 99.848 115.68 98.749 114.528 97.173 116.889 97.381 119.232 95.805 119.306 94.499 121.389 98.044 121.463 98.811 121.835 99.35 122.43 99.723 128.938 95.867 135.409 101.092 142.233 99.35 146.417 97.443 150.433 100.387 154.672 99.661 156.16 99.081 157.666 98.044 159.098 99.786 176.632 100.159 195.319 98.604 211.943 99.848 256.364 97.526 303.836 100.801 350.674 97.733 361.719 96.551 373.192 94.872 383.958 93.525 383.958 93.525 392.679 89.834 392.679 73.249S394.538 58.736 394.817 45.53C395.096 32.324 396.398 31.785 394.538 21.419Z" opacity="1" fill="#755bb4" data-fill-palette-color="tertiary"></path><g transform="matrix(1,0,0,1,55.76832,26.068561146666667)"><svg width="283.98335999999995" viewBox="4 -34.5 208.53 35.05" height="47.727723653800034" data-palette-color="#ffffff"><path d="M4-34.5L14.85-34.5Q19.65-34.5 22.5-31.78 25.35-29.05 25.35-24.3 25.35-19.55 21.75-16.18 18.15-12.8 12.95-12.8L12.95-12.8 10.1-12.8 10.7 0 4 0 4.6-12.15 4-34.5ZM13.05-29.45L13.05-29.45 10.6-29.45 10.25-17.65 13.65-17.65Q16.15-17.65 17.53-19.3 18.9-20.95 18.9-24L18.9-24Q18.9-29.45 13.05-29.45ZM33.35 0Q30.4 0 28.52-1.88 26.65-3.75 26.65-6.93 26.65-10.1 29.55-12.43 32.45-14.75 36.6-14.75L36.6-14.75 40-14.75 40-15.6Q40-18.05 39-18.95 38-19.85 35.25-19.85L35.25-19.85Q34.1-19.85 32.52-19.38 30.95-18.9 29-17.9L29-17.9 27.55-21.85Q29.7-23.35 32.77-24.55 35.85-25.75 37.85-25.75L37.85-25.75Q45.7-25.75 45.7-18.15L45.7-18.15 45.7-8.35Q45.7-5.55 47.45-2.1L47.45-2.1 42.15 0.15Q40.9-2.25 40.3-4.15L40.3-4.15Q37.55 0 33.35 0L33.35 0ZM35.45-5.1L35.45-5.1Q37.45-5.1 40-7.15L40-7.15 40-10.5Q37.35-11.1 35.7-11.1L35.7-11.1Q32.55-11.1 32.55-8.3L32.55-8.3Q32.55-6.85 33.35-5.98 34.15-5.1 35.45-5.1ZM72.35-14.4L74.1-6.25 74.75-6.25 76.35-13.1 78.95-25.45 85.05-24.7 81.4-12.3 78.35-0.6 70.15 0.15 67.4-12 67.15-12.8 63.8-0.6 55.85 0.15 52.95-12 49.5-24.15 56.05-25.4 58.1-14.4 59.9-6.25 60.55-6.25 64.85-20.5 63.8-24.15 70.25-25.4 72.35-14.4ZM97.34-5.1L97.34-5.1Q98.79-5.1 100.39-5.85 101.99-6.6 102.89-7.35L102.89-7.35 103.79-8.1 106.09-5.3Q105.59-4.45 104.54-3.35 103.49-2.25 102.42-1.48 101.34-0.7 99.57-0.08 97.79 0.55 95.89 0.55L95.89 0.55Q91.84 0.55 89.29-2.53 86.74-5.6 86.74-10.45L86.74-10.45Q86.74-16.55 90.29-21.15 93.84-25.75 98.59-25.75L98.59-25.75Q102.24-25.75 104.27-23.7 106.29-21.65 106.29-17.95L106.29-17.95Q106.29-15.75 105.54-12.95L105.54-12.95 104.54-11.9 92.04-10.75Q92.89-5.1 97.34-5.1ZM97.34-20.6L97.34-20.6Q95.14-20.6 93.64-18.82 92.14-17.05 91.89-14.3L91.89-14.3 100.39-15.35Q100.54-16.5 100.54-17.25L100.54-17.25Q100.54-20.6 97.34-20.6ZM118.19-4.65L118.19-4.65Q120.79-4.65 120.79-6.95L120.79-6.95Q120.79-7.75 119.67-8.45 118.54-9.15 116.92-9.85 115.29-10.55 113.67-11.43 112.04-12.3 110.92-13.85 109.79-15.4 109.79-17.4L109.79-17.4Q109.79-20.75 112.74-23.25 115.69-25.75 119.54-25.75L119.54-25.75Q121.34-25.75 123.07-25.33 124.79-24.9 126.39-24L126.39-24 123.04-17.9Q122.69-18.2 122.14-18.65 121.59-19.1 120.07-19.83 118.54-20.55 117.37-20.55 116.19-20.55 115.57-20.03 114.94-19.5 114.94-18.57 114.94-17.65 116.67-16.73 118.39-15.8 120.44-15.03 122.49-14.25 124.22-12.48 125.94-10.7 125.94-8.25L125.94-8.25Q125.94-4.75 123.07-2.1 120.19 0.55 116.44 0.55L116.44 0.55Q114.04 0.55 111.97-0.5 109.89-1.55 108.99-2.6L108.99-2.6 108.09-3.65 112.04-8.25Q112.34-7.85 112.89-7.25 113.44-6.65 115.07-5.65 116.69-4.65 118.19-4.65ZM128.84-10.45Q128.84-16.85 132.29-21.3 135.74-25.75 140.36-25.75 144.99-25.75 147.56-22.75 150.14-19.75 150.14-14.8L150.14-14.8Q150.14-8.2 146.81-3.83 143.49 0.55 138.44 0.55L138.44 0.55Q134.29 0.55 131.56-2.58 128.84-5.7 128.84-10.45L128.84-10.45ZM144.54-12.2L144.54-12.2Q144.54-19.45 139.59-19.45L139.59-19.45Q134.44-19.45 134.44-12.65L134.44-12.65Q134.44-9.1 135.89-7.1 137.34-5.1 139.71-5.1 142.09-5.1 143.31-6.93 144.54-8.75 144.54-12.2ZM168.94-12.65Q168.94-16.1 168.34-17.25 167.74-18.4 165.54-18.4 163.34-18.4 160.54-16.65L160.54-16.65 160.54-13 161.09-1.25 154.39 0 154.99-12.15Q154.79-18.85 153.89-24.15L153.89-24.15 159.94-25.45Q160.29-22.55 160.44-19.8L160.44-19.8Q161.19-20.8 162.14-21.78 163.09-22.75 165.14-23.98 167.19-25.2 169.29-25.2 171.39-25.2 172.84-23.85 174.29-22.5 174.69-20.15L174.69-20.15Q178.84-25.2 183.09-25.2L183.09-25.2Q185.74-25.2 187.29-23.43 188.84-21.65 188.84-18.6L188.84-18.6 188.54-13 189.09-1 182.34 0.25 182.94-12.65Q182.94-16.1 182.34-17.25 181.74-18.4 179.59-18.4 177.44-18.4 174.74-16.75L174.74-16.75 174.54-13 175.09-1 168.34 0.25 168.94-12.65ZM203.58-5.1L203.58-5.1Q205.03-5.1 206.63-5.85 208.23-6.6 209.13-7.35L209.13-7.35 210.03-8.1 212.33-5.3Q211.83-4.45 210.78-3.35 209.73-2.25 208.66-1.48 207.58-0.7 205.81-0.08 204.03 0.55 202.13 0.55L202.13 0.55Q198.08 0.55 195.53-2.53 192.98-5.6 192.98-10.45L192.98-10.45Q192.98-16.55 196.53-21.15 200.08-25.75 204.83-25.75L204.83-25.75Q208.48-25.75 210.51-23.7 212.53-21.65 212.53-17.95L212.53-17.95Q212.53-15.75 211.78-12.95L211.78-12.95 210.78-11.9 198.28-10.75Q199.13-5.1 203.58-5.1ZM203.58-20.6L203.58-20.6Q201.38-20.6 199.88-18.82 198.38-17.05 198.13-14.3L198.13-14.3 206.63-15.35Q206.78-16.5 206.78-17.25L206.78-17.25Q206.78-20.6 203.58-20.6Z" opacity="1" transform="matrix(1,0,0,1,0,0)" fill="#ffffff" class="wordmark-text-0" data-fill-palette-color="quaternary" id="text-0"></path></svg></g></svg></g><g transform="matrix(1,0,0,1,74.54044656346188,111.13221603642788)"><svg viewBox="0 0 246.4391068730762 26.345703456897617" height="26.345703456897617" width="246.4391068730762"><g transform="matrix(1,0,0,1,0,0)"><svg width="246.4391068730762" viewBox="1.17 -33.15 312.830869555976 33.44" height="26.345703456897617" data-palette-color="#755bb4"><path d="M1.17-32.81L3.03-32.81 4.88-1.86Q9.23-1.86 13.6-2.42 17.97-2.98 22.56-3.47L22.56-3.47 22.75-1.86Q22.71-1.86 21.85-1.73 21-1.61 19.6-1.44 18.21-1.27 16.46-1.07 14.7-0.88 12.94-0.68 11.18-0.49 9.57-0.29 7.96-0.1 6.79 0L6.79 0Q6.74 0 6.54 0.02 6.35 0.05 6.1 0.05 5.86 0.05 5.62 0.05 5.37 0.05 5.22 0.05L5.22 0.05Q4.15 0.05 3.47-1.1 2.78-2.25 2.34-4.22 1.9-6.2 1.71-8.76 1.51-11.33 1.42-14.11 1.32-16.89 1.34-19.73 1.37-22.56 1.37-25.07 1.37-27.59 1.34-29.64 1.32-31.69 1.17-32.81L1.17-32.81ZM25.1-8.94L25.1-8.94Q25.1-10.06 25.29-11.55 25.49-13.04 25.93-14.55 26.36-16.06 27.02-17.53 27.68-18.99 28.61-20.14 29.54-21.29 30.76-22 31.98-22.71 33.49-22.71L33.49-22.71Q35.06-22.71 36.4-21.63 37.74-20.56 38.69-18.85 39.65-17.14 40.13-15.04 40.62-12.94 40.52-10.94L40.52-10.94Q40.52-8.01 39.4-5.71 38.28-3.42 36.55-2 34.81-0.59 32.83-0.1 30.86 0.39 29.12-0.37 27.39-1.12 26.24-3.22 25.1-5.32 25.1-8.94ZM26.9-8.74L26.9-8.74Q27.05-5.76 27.93-4.15 28.81-2.54 30.05-2.03 31.3-1.51 32.76-2 34.23-2.49 35.5-3.74 36.77-4.98 37.67-6.86 38.57-8.74 38.67-11.08L38.67-11.08Q38.77-12.84 38.4-14.5 38.03-16.16 37.38-17.46 36.72-18.75 35.76-19.51 34.81-20.26 33.59-20.26L33.59-20.26Q32.42-20.26 31.49-19.68 30.56-19.09 29.81-18.09 29.05-17.09 28.51-15.82 27.98-14.55 27.61-13.28 27.24-12.01 27.07-10.82 26.9-9.62 26.9-8.74ZM54.15 0.24L42.52-21.58 44.04-23.1 54.78-3.56 59.37-22.46Q59.71-22.31 60.1-22.24 60.49-22.17 60.81-22.09 61.13-22.02 61.32-21.92 61.52-21.83 61.52-21.58L61.52-21.58Q60.88-18.46 60.32-15.72 59.76-12.99 59.13-10.4 58.49-7.81 57.76-5.2 57.03-2.59 56.05 0.24L56.05 0.24 54.15 0.24ZM62.74-11.47L62.74-11.47Q62.74-12.94 63.37-14.72 64.01-16.5 65.1-18.04 66.2-19.58 67.6-20.63 68.99-21.68 70.5-21.68L70.5-21.68Q71.33-21.68 72.14-21.34 72.94-21 73.7-20.43 74.46-19.87 75.07-19.17 75.68-18.46 76.02-17.68 76.36-16.89 76.38-16.16 76.41-15.43 75.97-14.89L75.97-14.89 65.67-12.99Q65.47-12.94 65.32-12.52 65.18-12.11 65.08-11.47 64.98-10.84 64.91-10.08 64.84-9.33 64.79-8.62 64.74-7.91 64.74-7.35 64.74-6.79 64.74-6.49L64.74-6.49Q64.74-5.13 65.4-4.27 66.06-3.42 67.08-2.98 68.11-2.54 69.4-2.39 70.7-2.25 71.97-2.25 73.23-2.25 74.36-2.34 75.48-2.44 76.21-2.44L76.21-2.44Q76.21-2.25 76.07-2 75.92-1.76 75.72-1.54 75.53-1.32 75.33-1.15 75.14-0.98 75.09-0.93L75.09-0.93Q74.7-0.83 73.89-0.66 73.09-0.49 72.18-0.34 71.28-0.2 70.5-0.1 69.72 0 69.43 0L69.43 0Q67.91 0.29 66.79-0.05 65.67-0.39 64.89-1.22 64.1-2.05 63.62-3.25 63.13-4.44 62.88-5.81 62.64-7.18 62.61-8.64 62.59-10.11 62.74-11.47ZM69.82-19.82L69.82-19.82Q69.38-19.82 68.67-19.36 67.96-18.9 67.35-18.19 66.74-17.48 66.33-16.67 65.91-15.87 66.06-15.28L66.06-15.28Q67.33-15.14 68.69-15.33 70.06-15.53 71.18-15.94 72.31-16.36 73.04-16.92 73.77-17.48 73.75-18.07 73.72-18.65 72.82-19.12 71.92-19.58 69.82-19.82ZM97.59-4.2L97.59-4.2Q97.59-6.98 99.13-8.25 100.67-9.52 103.16-9.52L103.16-9.52Q104.14-9.52 104.99-9.47 105.85-9.42 106.63-9.23 107.41-9.03 108.17-8.64 108.92-8.25 109.75-7.52L109.75-7.52Q109.75-7.67 109.78-8.13 109.8-8.59 109.8-9.13 109.8-9.67 109.8-10.13 109.8-10.6 109.8-10.79L109.8-10.79Q109.75-11.67 109.75-13.06 109.75-14.45 109.53-15.92 109.31-17.38 108.65-18.7 108-20.02 106.53-20.7L106.53-20.7Q105.51-20.7 104.63-20.36 103.75-20.02 102.87-19.63 101.99-19.24 101.11-18.92 100.23-18.6 99.21-18.6L99.21-18.6Q99.21-19.82 99.96-20.63 100.72-21.44 101.79-21.88 102.87-22.31 104.04-22.46 105.21-22.61 106.09-22.61L106.09-22.61Q106.97-22.46 107.73-22.27 108.48-22.07 109.14-21.48 109.8-20.9 110.36-19.7 110.93-18.51 111.34-16.36 111.76-14.21 112.07-10.91 112.39-7.62 112.59-2.83L112.59-2.83Q112.68-2.2 112.17-1.73 111.66-1.27 110.78-0.95 109.9-0.63 108.8-0.42 107.7-0.2 106.58-0.1 105.46 0 104.43 0.05 103.41 0.1 102.72 0.1L102.72 0.1Q101.84 0.1 100.94-0.2 100.04-0.49 99.28-1.05 98.52-1.61 98.06-2.42 97.59-3.22 97.59-4.2ZM103.94-7.62L103.94-7.62Q101.5-6.93 100.52-5.98 99.55-5.03 99.67-4.15 99.79-3.27 100.82-2.56 101.84-1.86 103.31-1.64 104.77-1.42 106.48-1.88 108.19-2.34 109.75-3.71L109.75-3.71Q109.17-5.13 108.58-5.88 108-6.64 107.31-7.03 106.63-7.42 105.8-7.52 104.97-7.62 103.94-7.62ZM120.49-17.72L120.49-17.72Q120.05-17.87 119.3-17.85 118.54-17.82 117.69-17.75 116.83-17.68 116.05-17.58 115.27-17.48 114.73-17.48L114.73-17.48Q114.49-17.48 114.41-18.19 114.34-18.9 114.19-20.12L114.19-20.12 121.08-20.61Q121.23-22.31 121.27-23.05 121.32-23.78 121.3-24.29 121.27-24.8 121.25-25.46 121.23-26.12 121.23-27.54L121.23-27.54Q122.49-27.73 123.15-27.66 123.81-27.59 124.06-27.29 124.3-27 124.28-26.44 124.25-25.88 124.13-25.05 124.01-24.22 123.94-23.05 123.86-21.88 124.01-20.41L124.01-20.41 129.87-20.61 129.87-18.21Q129.48-18.21 128.65-18.16 127.82-18.12 126.86-18.07 125.91-18.02 125.11-17.97 124.3-17.92 123.91-17.77L123.91-17.77Q123.52-16.02 123.08-14.01 122.64-12.01 122.49-10.06 122.35-8.11 122.59-6.42 122.84-4.74 123.81-3.64 124.79-2.54 126.6-2.12 128.4-1.71 131.38-2.39L131.38-2.39Q131.28-1.66 130.82-1.2 130.36-0.73 129.75-0.46 129.14-0.2 128.45-0.07 127.77 0.05 127.23 0.05L127.23 0.05Q124.74 0.05 123.28-0.85 121.81-1.76 121.08-3.22 120.35-4.69 120.15-6.57 119.96-8.45 120.03-10.4 120.1-12.35 120.3-14.26 120.49-16.16 120.49-17.72ZM152.52-25.29L152.52-25.29Q152.37-25.34 152.18-25.59 151.98-25.83 151.84-26.12 151.69-26.42 151.59-26.71 151.49-27 151.54-27.15L151.54-27.15Q151.59-27.34 151.84-27.64 152.08-27.93 152.37-28.25 152.67-28.56 152.96-28.81 153.25-29.05 153.45-29.05L153.45-29.05Q154.03-29.2 155.28-29.52 156.52-29.83 158.09-30.22 159.65-30.62 161.38-31.01 163.11-31.4 164.7-31.76 166.29-32.13 167.53-32.42 168.78-32.71 169.36-32.81L169.36-32.81Q169.61-32.86 170.17-32.91 170.73-32.96 171.37-33.01 172-33.06 172.56-33.11 173.12-33.15 173.32-33.15L173.32-33.15Q173.32-32.23 173.1-31.81 172.88-31.4 172.47-31.25 172.05-31.1 171.51-31.1 170.98-31.1 170.29-30.96L170.29-30.96Q169.8-30.81 168.68-30.52 167.56-30.22 166.19-29.86 164.82-29.49 163.29-29.1 161.75-28.71 160.36-28.32 158.96-27.93 157.87-27.61 156.77-27.29 156.23-27.15L156.23-27.15Q155.5-26.32 155.4-25.63 155.3-24.95 155.3-24.02L155.3-24.02Q155.3-21.92 155.57-20.04 155.84-18.16 156.23-15.92L156.23-15.92Q156.33-15.92 156.5-15.89 156.67-15.87 156.77-15.87L156.77-15.87Q158.09-15.87 159.33-16.19 160.58-16.5 161.82-16.89 163.07-17.29 164.36-17.6 165.65-17.92 167.02-17.92L167.02-17.92Q167.22-17.92 167.68-17.9 168.14-17.87 168.58-17.75 169.02-17.63 169.27-17.43 169.51-17.24 169.36-16.89L169.36-16.89 156.77-13.09 156.77 0.29Q155.89 0.29 155.4 0.07 154.91-0.15 154.72-0.56 154.52-0.98 154.47-1.54 154.42-2.1 154.37-2.83L154.37-2.83Q154.28-3.66 154.13-5.42 153.98-7.18 153.81-9.4 153.64-11.62 153.45-14.06 153.25-16.5 153.06-18.73 152.86-20.95 152.71-22.71 152.57-24.46 152.52-25.29ZM174.98 0.1L174.25-18.95Q174.83-18.95 175.25-18.99 175.66-19.04 175.95-18.51L175.95-18.51Q176.1-16.31 176.3-14.04 176.49-11.77 176.69-9.47 176.88-7.18 176.96-4.86 177.03-2.54 176.98-0.34L176.98-0.34Q176.98-0.05 176.83 0.02 176.69 0.1 176.42 0.07 176.15 0.05 175.78 0.02 175.42 0 174.98 0.1L174.98 0.1ZM171.41-27.69L171.41-27.69Q171.41-28.03 171.46-28.44 171.51-28.86 171.68-29.2 171.85-29.54 172.12-29.79 172.39-30.03 172.78-30.03L172.78-30.03Q173.37-30.03 173.95-29.98 174.54-29.93 175.08-29.76 175.61-29.59 175.95-29.22 176.3-28.86 176.3-28.17L176.3-28.17Q176.3-27 175.42-26.1 174.54-25.2 173.27-25.2L173.27-25.2Q172.29-25.2 171.85-25.95 171.41-26.71 171.41-27.69ZM174.25-27.44L174.25-27.44Q174.1-27.44 174.1-27.2 174.1-26.95 174.25-26.95L174.25-26.95Q174.44-26.95 174.44-27.2 174.44-27.44 174.25-27.44ZM178.69-19.04L178.69-19.04Q179.27-19.29 179.71-19.14 180.15-18.99 180.44-18.6 180.74-18.21 180.88-17.7 181.03-17.19 181.13-16.7L181.13-16.7Q181.76-17.77 182.96-18.43 184.15-19.09 185.52-19.31 186.89-19.53 188.26-19.41 189.62-19.29 190.58-18.82 191.53-18.36 191.92-17.55 192.31-16.75 191.72-15.67L191.72-15.67Q190.45-16.41 189.06-16.85 187.67-17.29 186.35-17.14 185.03-16.99 183.91-16.14 182.79-15.28 182.06-13.43 181.32-11.57 181.15-8.52 180.98-5.47 181.57-0.93L181.57-0.93 179.71-0.93Q179.71-0.93 179.64-1.73 179.56-2.54 179.49-3.86 179.42-5.18 179.3-6.79 179.17-8.4 179.08-10.06 178.98-11.72 178.91-13.26 178.83-14.79 178.73-15.92L178.73-15.92Q178.73-16.06 178.71-16.5 178.69-16.94 178.69-17.46 178.69-17.97 178.69-18.41 178.69-18.85 178.69-19.04ZM196.51-3.96L196.51-3.96Q197.38-3.96 198.14-3.61 198.9-3.27 199.63-2.86 200.36-2.44 201.12-2.12 201.88-1.81 202.76-1.81L202.76-1.81Q203.78-1.81 204.88-2.17 205.98-2.54 206.91-3.2 207.83-3.86 208.42-4.81 209.01-5.76 209.01-6.88L209.01-6.88Q209.05-7.23 209.03-7.71 209.01-8.2 208.71-8.72 208.42-9.23 207.74-9.69 207.05-10.16 205.76-10.4 204.46-10.64 202.51-10.67 200.56-10.69 197.68-10.3L197.68-10.3Q196.95-10.3 196.26-10.72 195.58-11.13 195.04-11.74 194.5-12.35 194.16-13.06 193.82-13.77 193.82-14.4L193.82-14.4Q193.82-16.31 194.63-17.5 195.43-18.7 196.7-19.41 197.97-20.12 199.53-20.41 201.1-20.7 202.71-20.7L202.71-20.7Q203.44-20.7 204.39-20.63 205.34-20.56 206.15-20.24 206.95-19.92 207.52-19.24 208.08-18.55 208.08-17.33L208.08-17.33Q207.98-16.5 207.81-16.33 207.64-16.16 207.32-16.43 207-16.7 206.56-17.19 206.12-17.68 205.51-18.14 204.9-18.6 204.05-18.85 203.2-19.09 202.12-18.85L202.12-18.85Q201-18.85 199.87-18.63 198.75-18.41 197.85-17.87 196.95-17.33 196.38-16.41 195.82-15.48 195.82-14.06L195.82-14.06Q195.82-13.33 196.48-13.06 197.14-12.79 198.24-12.79 199.34-12.79 200.73-12.87 202.12-12.94 203.59-12.94 205.05-12.94 206.42-12.72 207.79-12.5 208.83-11.84 209.88-11.18 210.47-9.96 211.06-8.74 210.91-6.79L210.91-6.79Q210.91-5.37 210.1-4.1 209.3-2.83 208.05-1.88 206.81-0.93 205.29-0.39 203.78 0.15 202.37 0L202.37 0Q201.78-0.05 200.78-0.32 199.78-0.59 198.83-1.07 197.87-1.56 197.19-2.27 196.51-2.98 196.51-3.96ZM219.16-17.72L219.16-17.72Q218.72-17.87 217.96-17.85 217.21-17.82 216.35-17.75 215.5-17.68 214.72-17.58 213.93-17.48 213.4-17.48L213.4-17.48Q213.15-17.48 213.08-18.19 213.01-18.9 212.86-20.12L212.86-20.12 219.75-20.61Q219.89-22.31 219.94-23.05 219.99-23.78 219.97-24.29 219.94-24.8 219.92-25.46 219.89-26.12 219.89-27.54L219.89-27.54Q221.16-27.73 221.82-27.66 222.48-27.59 222.72-27.29 222.97-27 222.94-26.44 222.92-25.88 222.8-25.05 222.68-24.22 222.6-23.05 222.53-21.88 222.68-20.41L222.68-20.41 228.53-20.61 228.53-18.21Q228.14-18.21 227.31-18.16 226.48-18.12 225.53-18.07 224.58-18.02 223.77-17.97 222.97-17.92 222.58-17.77L222.58-17.77Q222.19-16.02 221.75-14.01 221.31-12.01 221.16-10.06 221.01-8.11 221.26-6.42 221.5-4.74 222.48-3.64 223.46-2.54 225.26-2.12 227.07-1.71 230.05-2.39L230.05-2.39Q229.95-1.66 229.49-1.2 229.02-0.73 228.41-0.46 227.8-0.2 227.12-0.07 226.43 0.05 225.9 0.05L225.9 0.05Q223.41 0.05 221.94-0.85 220.48-1.76 219.75-3.22 219.01-4.69 218.82-6.57 218.62-8.45 218.7-10.4 218.77-12.35 218.96-14.26 219.16-16.16 219.16-17.72ZM251.92-3.71L251.92-24.37Q251.72-24.41 251.45-24.66 251.19-24.9 250.97-25.2 250.75-25.49 250.6-25.78 250.45-26.07 250.45-26.27L250.45-26.27Q250.6-27.88 251.65-28.69 252.7-29.49 254.07-29.79 255.43-30.08 256.9-30.08 258.36-30.08 259.39-30.08L259.39-30.08Q261.1-30.08 262.54-29.91 263.98-29.74 265.05-29.13 266.13-28.52 266.76-27.39 267.4-26.27 267.4-24.32L267.4-24.32Q267.4-23.34 267.32-22.58 267.25-21.83 267.05-21.12 266.86-20.41 266.47-19.6 266.08-18.8 265.44-17.77L265.44-17.77Q267.45-17.14 268.76-16.58 270.08-16.02 270.81-15.21 271.55-14.4 271.82-13.26 272.08-12.11 272.08-10.3L272.08-10.3Q272.08-8.15 271.16-6.25 270.23-4.35 268.69-2.93 267.15-1.51 265.1-0.71 263.05 0.1 260.76 0.1L260.76 0.1Q260.27 0.1 259.44-0.07 258.61-0.24 257.63-0.51 256.65-0.78 255.63-1.15 254.6-1.51 253.77-1.95 252.94-2.39 252.43-2.83 251.92-3.27 251.92-3.71L251.92-3.71ZM255.14-13.09L255.14-13.09Q255.24-11.91 255.04-10.64 254.85-9.38 254.7-8.2 254.55-7.03 254.6-5.98 254.65-4.93 255.19-4.1 255.73-3.27 256.95-2.66 258.17-2.05 260.32-1.81L260.32-1.81Q262.12-1.81 263.91-2.47 265.69-3.13 267.08-4.27 268.47-5.42 269.35-7.01 270.23-8.59 270.23-10.5L270.23-10.5Q270.23-11.77 269.79-12.65 269.35-13.53 268.62-14.09 267.88-14.65 266.88-14.89 265.88-15.14 264.76-15.14L264.76-15.14Q263.34-15.14 262.22-15.06 261.1-14.99 260-14.77 258.9-14.55 257.75-14.14 256.61-13.72 255.14-13.09ZM254.16-18.16L254.16-18.16Q254.16-17.77 254.21-17.36 254.26-16.94 254.38-16.63 254.51-16.31 254.8-16.09 255.09-15.87 255.58-15.87L255.58-15.87Q257.24-15.87 259-16.5 260.76-17.14 262.2-18.26 263.64-19.38 264.59-20.92 265.54-22.46 265.54-24.37L265.54-24.37Q265.54-24.56 265.44-24.93 265.35-25.29 265-25.68 264.66-26.07 263.98-26.44 263.3-26.81 262.15-27.05 261-27.29 259.29-27.34 257.58-27.39 255.14-27.15L255.14-27.15Q255.04-27.05 254.92-26.51 254.8-25.98 254.68-25.17 254.55-24.37 254.48-23.41 254.41-22.46 254.34-21.51 254.26-20.56 254.21-19.68 254.16-18.8 254.16-18.16ZM277.45 0.1L276.72-18.95Q277.31-18.95 277.72-18.99 278.14-19.04 278.43-18.51L278.43-18.51Q278.58-16.31 278.77-14.04 278.97-11.77 279.16-9.47 279.36-7.18 279.43-4.86 279.5-2.54 279.45-0.34L279.45-0.34Q279.45-0.05 279.31 0.02 279.16 0.1 278.89 0.07 278.62 0.05 278.26 0.02 277.89 0 277.45 0.1L277.45 0.1ZM273.89-27.69L273.89-27.69Q273.89-28.03 273.94-28.44 273.99-28.86 274.16-29.2 274.33-29.54 274.6-29.79 274.86-30.03 275.26-30.03L275.26-30.03Q275.84-30.03 276.43-29.98 277.01-29.93 277.55-29.76 278.09-29.59 278.43-29.22 278.77-28.86 278.77-28.17L278.77-28.17Q278.77-27 277.89-26.1 277.01-25.2 275.74-25.2L275.74-25.2Q274.77-25.2 274.33-25.95 273.89-26.71 273.89-27.69ZM276.72-27.44L276.72-27.44Q276.57-27.44 276.57-27.2 276.57-26.95 276.72-26.95L276.72-26.95Q276.92-26.95 276.92-27.2 276.92-27.44 276.72-27.44ZM287.46-17.72L287.46-17.72Q287.02-17.87 286.26-17.85 285.51-17.82 284.65-17.75 283.8-17.68 283.02-17.58 282.24-17.48 281.7-17.48L281.7-17.48Q281.45-17.48 281.38-18.19 281.31-18.9 281.16-20.12L281.16-20.12 288.05-20.61Q288.19-22.31 288.24-23.05 288.29-23.78 288.27-24.29 288.24-24.8 288.22-25.46 288.19-26.12 288.19-27.54L288.19-27.54Q289.46-27.73 290.12-27.66 290.78-27.59 291.02-27.29 291.27-27 291.24-26.44 291.22-25.88 291.1-25.05 290.98-24.22 290.9-23.05 290.83-21.88 290.98-20.41L290.98-20.41 296.84-20.61 296.84-18.21Q296.44-18.21 295.61-18.16 294.78-18.12 293.83-18.07 292.88-18.02 292.07-17.97 291.27-17.92 290.88-17.77L290.88-17.77Q290.49-16.02 290.05-14.01 289.61-12.01 289.46-10.06 289.32-8.11 289.56-6.42 289.8-4.74 290.78-3.64 291.76-2.54 293.56-2.12 295.37-1.71 298.35-2.39L298.35-2.39Q298.25-1.66 297.79-1.2 297.32-0.73 296.71-0.46 296.1-0.2 295.42-0.07 294.74 0.05 294.2 0.05L294.2 0.05Q291.71 0.05 290.24-0.85 288.78-1.76 288.05-3.22 287.31-4.69 287.12-6.57 286.92-8.45 287-10.4 287.07-12.35 287.26-14.26 287.46-16.16 287.46-17.72ZM300.35-11.47L300.35-11.47Q300.35-12.94 300.98-14.72 301.62-16.5 302.72-18.04 303.81-19.58 305.21-20.63 306.6-21.68 308.11-21.68L308.11-21.68Q308.94-21.68 309.75-21.34 310.55-21 311.31-20.43 312.07-19.87 312.68-19.17 313.29-18.46 313.63-17.68 313.97-16.89 314-16.16 314.02-15.43 313.58-14.89L313.58-14.89 303.28-12.99Q303.08-12.94 302.94-12.52 302.79-12.11 302.69-11.47 302.59-10.84 302.52-10.08 302.45-9.33 302.4-8.62 302.35-7.91 302.35-7.35 302.35-6.79 302.35-6.49L302.35-6.49Q302.35-5.13 303.01-4.27 303.67-3.42 304.69-2.98 305.72-2.54 307.01-2.39 308.31-2.25 309.58-2.25 310.85-2.25 311.97-2.34 313.09-2.44 313.82-2.44L313.82-2.44Q313.82-2.25 313.68-2 313.53-1.76 313.34-1.54 313.14-1.32 312.95-1.15 312.75-0.98 312.7-0.93L312.7-0.93Q312.31-0.83 311.51-0.66 310.7-0.49 309.8-0.34 308.89-0.2 308.11-0.1 307.33 0 307.04 0L307.04 0Q305.52 0.29 304.4-0.05 303.28-0.39 302.5-1.22 301.72-2.05 301.23-3.25 300.74-4.44 300.49-5.81 300.25-7.18 300.23-8.64 300.2-10.11 300.35-11.47ZM307.43-19.82L307.43-19.82Q306.99-19.82 306.28-19.36 305.57-18.9 304.96-18.19 304.35-17.48 303.94-16.67 303.52-15.87 303.67-15.28L303.67-15.28Q304.94-15.14 306.31-15.33 307.67-15.53 308.8-15.94 309.92-16.36 310.65-16.92 311.38-17.48 311.36-18.07 311.33-18.65 310.43-19.12 309.53-19.58 307.43-19.82Z" opacity="1" transform="matrix(1,0,0,1,0,0)" fill="#755bb4" class="slogan-text-1" data-fill-palette-color="secondary" id="text-1"></path></svg></g></svg></g></svg></g></svg></g><g transform="matrix(1,0,0,1,126.74934303058454,0)"><svg viewBox="0 0 142.0213139388309 134.26276921610827" height="134.26276921610827" width="142.0213139388309"><g><svg xmlns="http://www.w3.org/2000/svg" xmlns:xlink="http://www.w3.org/1999/xlink" version="1.1" x="0" y="0" viewBox="2.522716300446047 5.008139777365489 90.95254684264506 85.98386022263452" enable-background="new 0 0 96 96" xml:space="preserve" height="134.26276921610827" width="142.0213139388309" class="icon-icon-0" data-fill-palette-color="accent" id="icon-0"><path d="M48 38.124C28.54 38.124 14 58.187 14 76.124 14 81.848 15.448 85.779 18.428 88.156 21.58 90.672 25.98 90.992 29.46 90.992 31.964 90.992 34.696 90.8 37.592 90.592 44.264 90.132 51.744 90.132 58.408 90.592 61.308 90.8 64.032 90.992 66.54 90.992 74.18 90.992 82 89.228 82 76.124 82 58.188 67.46 38.124 48 38.124" fill="#755bb4" data-fill-palette-color="accent"></path><path d="M20.152 49.229C22.464 48.285 24.224 46.409 25.112 43.957 26.28 40.717 25.864 36.809 23.972 33.229 20.672 27.009 13.424 23.541 8.14 25.713 5.828 26.657 4.068 28.537 3.18 30.993 2.004 34.229 2.42 38.137 4.316 41.721 6.916 46.633 11.84 49.925 16.568 49.925A9.5 9.5 0 0 0 20.152 49.229" fill="#755bb4" data-fill-palette-color="accent"></path><path d="M38.884 37.488C39.388 37.488 39.896 37.436 40.404 37.336 46.364 36.116 49.956 28.132 48.584 19.16 47.224 10.204 41.268 3.94 35.296 5.16 29.34 6.376 25.748 14.356 27.12 23.332 28.368 31.536 33.32 37.488 38.884 37.488" fill="#755bb4" data-fill-palette-color="accent"></path><path d="M92.82 30.992C91.935 28.54 90.172 26.656 87.859 25.712 82.568 23.532 75.32 27.008 72.032 33.228 70.132 36.812 69.724 40.72 70.896 43.956 71.784 46.408 73.543 48.284 75.851 49.228A9.5 9.5 0 0 0 79.435 49.923C84.164 49.923 89.083 46.627 91.679 41.719 93.58 38.14 93.992 34.236 92.82 30.992" fill="#755bb4" data-fill-palette-color="accent"></path><path d="M59.584 37.336C60.092 37.436 60.6 37.488 61.104 37.488 66.672 37.488 71.617 31.536 72.864 23.332 74.233 14.356 70.637 6.376 64.692 5.16 58.709 3.94 52.764 10.204 51.397 19.16 50.04 28.132 53.632 36.116 59.584 37.336" fill="#755bb4" data-fill-palette-color="accent"></path></svg></g></svg></g><g></g></svg></g><defs></defs></svg><rect width="345.47618331085965" height="247.2" fill="none" stroke="none" visibility="hidden"></rect></g></svg></g></svg>